<?xml version="1.0" encoding="utf-8"?>
<svg viewBox="0 0 500 500" xmlns="http://www.w3.org/2000/svg">
  <g transform="matrix(0.07253400981426239, 0, 0, -0.07253400981426239, -139.2135009765625, 612.2992553710938)" fill="#000000" stroke="none" style="">
    <path d="M 4895 7799 C 4373 7730 3911 7405 3647 6920 C 3587 6810 3522 6631 3499 6509 C 3480 6412 3476 6343 3470 6055 C 3463 5702 3460 5679 3415 5589 C 3367 5496 3317 5446 3193 5369 C 2936 5211 2841 5051 2869 4826 C 2882 4722 2925 4636 3012 4545 C 3077 4476 3099 4461 3273 4364 C 3372 4309 3453 4241 3515 4160 C 3551 4113 3700 3860 3700 3845 C 3700 3842 3713 3821 3730 3798 C 3746 3776 3758.787 3748.403 3760.226 3744.678 C 3761.665 3740.953 3764.727 3735.323 3768.226 3728.678 C 3773.712 3722.134 3895 3566 3902 3551 C 3910 3534 4129 3333 4214 3265 C 4267 3223 4316.715 3176.523 4325 3170 C 4333.285 3163.477 4341.722 3155.768 4351.374 3148.747 C 4361.026 3141.726 4403 3115 4424 3096 C 4444 3077 4465 3060 4469 3058 C 4474 3056 4499 3037 4526 3015 C 4649 2913 4734 2834 4835 2725 C 5036 2509 5048 2500 5120 2500 C 5200 2500 5229 2522 5424 2734 C 5549 2869 5733 3030 5924 3173 C 5940 3185 5972 3211 5994 3231 C 6017 3250 6049 3276 6065 3289 C 6082 3301 6153 3368 6224 3438 C 6400 3611 6470 3707 6620 3980 C 6702 4130 6731 4172 6805 4246 C 6864 4304 6902 4329 7083 4431 C 7168 4478 7264 4568 7313 4647 C 7392 4773 7400 4956 7333 5099 C 7294 5182 7188 5286 7078 5350 C 7027 5380 6960 5430 6930 5460 C 6872 5518 6807 5631 6797 5690 C 6793 5709 6790 5869 6789 6045 C 6787 6294 6776.14 6362.305 6773.698 6385.349 C 6771.745 6403.781 6766.546 6420.215 6762.444 6436.698 C 6753.309 6473.406 6705 6690 6662 6793 C 6628 6875 6590 6944 6493 7104 C 6483 7120 6467 7141 6458 7151 C 6449 7161 6433 7181 6423 7197 C 6390 7248 6184 7441 6093 7506 C 5873 7663 5588 7776 5350 7800 C 5238 7811 4980 7811 4895 7799 Z M 5307 7429 C 5832 7359 6256 6963 6372 6435 C 6389 6356 6380.068 4670.669 6374 4632 C 6369.852 4605.567 6364.913 4565.971 6366.153 4579.485 C 6367.889 4598.405 6352 4409 6313 4285 C 6281 4185 6252 4121 6188 4012 C 6062 3798 5963 3698 5600 3415 C 5509 3345 5406 3262 5371 3231 C 5302 3172 5197 3053 5152 2984 L 5124 2942 L 5065 3021 C 4958 3167 4876 3240 4477 3550 C 4335 3660 4199 3803 4111 3935 C 4021 4070 3988 4135 3944 4265 C 3906 4381 3883.854 4557.59 3883.042 4586.34 C 3880.058 4607.755 3878.483 4626.034 3876 4642 C 3866.766 4701.381 3855 6220 3870 6360 C 3887.694 6525.145 3913 6605 3987 6755 C 4070 6924 4249 7124 4415 7235 C 4559 7330 4752 7404 4925 7429 C 5011 7441 5216 7442 5307 7429 Z M 3475 4924 C 3473 4822 3469 4736 3466 4733 C 3463 4730 3446 4730 3427 4734 C 3379 4743 3315 4802 3294 4855 C 3278 4897 3278 4903 3294 4943 C 3303 4966 3319 4995 3329 5007 C 3348 5030 3458 5110 3470 5110 C 3474 5110 3476 5026 3475 4924 Z M 6855 5054 C 6950 4987 6984 4905 6946 4833 C 6927 4795 6877 4752 6842 4744 C 6827 4740 6809 4733 6802 4727 C 6776 4707 6770 4744 6770 4928 C 6770 5072 6773 5110 6783 5104 C 6789 5100 6822 5077 6855 5054 Z" style="fill-rule: nonzero; fill: rgb(255, 255, 255);"/>
    <path d="M 4520 6431 C 4417 6397 4324 6313 4290 6223 C 4261 6146 4265 6019 4299 5948 C 4393 5753 4635 5681 4798 5800 C 4821 5816 4860 5855 4884 5887 C 5059 6109 4907 6425 4620 6437 C 4579 6438 4534 6436 4520 6431 Z M 4610 6240 C 4633 6217 4636 6172 4616 6145 C 4597 6118 4542 6121 4518 6149 C 4495 6179 4489.417 6206.255 4515.417 6239.255 C 4540.417 6270.255 4582 6268 4610 6240 Z" style="fill: rgb(255, 255, 255);"/>
    <path d="M 5525 6423 C 5399 6377 5315 6280 5290 6150 C 5263 6008 5355 5838 5498 5768 C 5569 5733 5695 5735 5770 5772 C 5844 5808 5904 5870 5943 5949 C 5972 6008 5975 6024 5975 6100 C 5974 6173 5970 6193 5946 6238 C 5911 6307 5846 6371 5778 6406 C 5708 6442 5599 6449 5525 6423 Z M 5637 6238 C 5668 6209 5667 6167 5634 6141 C 5619 6129 5606.428 6124.428 5593.893 6124.981 C 5581.358 6125.534 5571 6129 5556 6141 C 5524 6166 5521 6211 5550 6240 C 5576 6266 5608 6265 5637 6238 Z" style="fill: rgb(255, 255, 255);"/>
  </g>
</svg>